<svg width="1440" height="527" viewBox="0 0 1440 527" fill="none" xmlns="http://www.w3.org/2000/svg">
<path fill-rule="evenodd" clip-rule="evenodd" d="M0 403.706L14 372.166C28 340.625 56 278.978 85 289.014C113 300.483 141 382.201 169 382.201C198 382.201 226 300.483 254 258.907C282 217.331 311 217.331 339 217.331C367 217.331 395 217.331 424 227.367C452 237.402 480 258.907 508 237.402C536 217.331 565 155.684 593 197.26C621 237.402 649 382.201 678 403.706C706 423.777 734 320.554 762 217.331C791 114.108 819 10.8855 847 0.849914C875 -9.18565 904 72.5325 932 94.0372C960 114.108 988 72.5325 1016 124.144C1045 175.755 1073 320.554 1101 310.519C1129 300.483 1158 134.179 1186 145.649C1214 155.684 1242 340.625 1271 423.777C1299 506.929 1327 485.424 1355 485.424C1384 485.424 1412 506.929 1426 516.964L1440 527H1426C1412 527 1384 527 1355 527C1327 527 1299 527 1271 527C1242 527 1214 527 1186 527C1158 527 1129 527 1101 527C1073 527 1045 527 1016 527C988 527 960 527 932 527C904 527 875 527 847 527C819 527 791 527 762 527C734 527 706 527 678 527C649 527 621 527 593 527C565 527 536 527 508 527C480 527 452 527 424 527C395 527 367 527 339 527C311 527 282 527 254 527C226 527 198 527 169 527C141 527 113 527 85 527C56 527 28 527 14 527H0V403.706Z" fill="#FDFDFD"/>
</svg>
